<?xml version="1.0" standalone="no"?>
<svg version="1.0" xmlns="http://www.w3.org/2000/svg"
 width="256" height="256" viewBox="0 0 256 256"
 preserveAspectRatio="xMidYMid meet" role="img" aria-label="Forge">
<title>Forge</title>
<g transform="translate(0.000000,256.000000) scale(0.100000,-0.100000)"
fill="#EF4444" stroke="none">
<path d="M1083 2338 c-55 -102 -64 -113 -93 -118 -28 -5 -37 -16 -90 -115 -54
-101 -57 -112 -44 -132 13 -20 9 -31 -43 -131 -31 -59 -54 -115 -51 -122 8
-22 336 -192 362 -188 15 2 37 32 81 116 52 97 63 112 81 107 12 -3 27 2 34
10 10 12 15 12 33 1 12 -8 128 -69 257 -136 129 -68 280 -147 335 -176 55 -29
161 -84 235 -123 73 -39 143 -71 155 -71 15 0 31 21 65 85 24 46 42 86 40 89
-7 6 -77 43 -225 121 -71 37 -166 87 -210 110 -44 23 -132 69 -195 102 -63 33
-169 89 -235 123 -66 34 -128 67 -139 72 -12 7 -15 13 -8 20 7 7 7 16 0 28 -9
13 1 38 46 123 32 59 56 114 54 123 -2 8 -37 33 -78 55 -176 95 -268 139 -287
139 -15 0 -34 -26 -80 -112z"/>
<path d="M452 1722 c5 -59 8 -64 104 -185 55 -69 100 -125 101 -124 1 2 -28
129 -53 224 -14 53 -22 66 -50 83 -19 11 -50 30 -70 42 l-37 21 5 -61z"/>
<path d="M789 1531 c-6 -37 -10 -74 -7 -81 4 -12 68 98 68 117 0 6 -11 15 -24
21 -24 11 -25 10 -37 -57z"/>
<path d="M336 1466 c30 -33 52 -48 94 -60 30 -9 70 -23 89 -32 31 -14 28 -9
-34 61 l-67 75 -61 0 -60 0 39 -44z"/>
<path d="M939 1459 c-15 -16 -46 -52 -69 -78 l-40 -49 91 32 c68 24 95 39 107
59 15 24 15 27 -3 46 -26 29 -52 26 -86 -10z"/>
<path d="M620 1200 l0 -30 -307 0 -307 0 49 -51 c114 -116 255 -194 465 -254
159 -45 219 -75 269 -131 102 -116 93 -276 -22 -382 -26 -23 -48 -42 -50 -42
-1 0 -27 -8 -56 -19 l-53 -18 -1 -77 -2 -76 206 0 206 0 17 44 c31 80 132 145
240 153 125 10 238 -47 286 -144 l25 -52 208 0 207 -1 0 79 0 78 -45 13 c-59
17 -127 62 -165 110 -38 48 -64 147 -55 209 16 104 96 205 201 253 67 31 394
156 439 169 17 5 63 42 105 84 l74 75 -368 0 c-359 0 -368 0 -373 20 -5 20
-14 20 -599 20 l-594 0 0 -30z"/>
</g>
</svg>
